HIERARCHY
ROOT Hips
{
	OFFSET	0.000000	0.000000	0.000000
	CHANNELS 6 Xposition Yposition Zposition Zrotation Xrotation Yrotation
	JOINT LeftHip
	{
		OFFSET	4.740440	-3.195970	-0.322709
		CHANNELS 3 Zrotation Xrotation Yrotation
		JOINT LeftKnee
		{
			OFFSET	-1.605680	-15.592300	1.005510
			CHANNELS 3 Zrotation Xrotation Yrotation
			JOINT LeftAnkle
			{
				OFFSET	-0.632401	-16.421000	-1.413730
				CHANNELS 3 Zrotation Xrotation Yrotation
				End Site
				{
					OFFSET	0.008423	-3.933000	-1.776750
				}
			}
		}
	}
	JOINT RightHip
	{
		OFFSET	-4.740440	-3.195970	-0.322709
		CHANNELS 3 Zrotation Xrotation Yrotation
		JOINT RightKnee
		{
			OFFSET	1.605680	-15.592300	1.005510
			CHANNELS 3 Zrotation Xrotation Yrotation
			JOINT RightAnkle
			{
				OFFSET	0.632401	-16.421000	-1.413730
				CHANNELS 3 Zrotation Xrotation Yrotation
				End Site
				{
					OFFSET	-0.008423	-3.933000	-1.776750
				}
			}
		}
	}
	JOINT Chest
	{
		OFFSET	0.000000	3.468200	0.078401
		CHANNELS 3 Zrotation Xrotation Yrotation
		JOINT LeftCollar
		{
			OFFSET	3.857650	15.070700	-0.011583
			CHANNELS 3 Zrotation Xrotation Yrotation
			JOINT LeftShoulder
			{
				OFFSET	3.979720	-1.940530	-0.165223
				CHANNELS 3 Zrotation Xrotation Yrotation
				JOINT LeftElbow
				{
					OFFSET	0.615844	-10.986600	-0.673886
					CHANNELS 3 Zrotation Xrotation Yrotation
					JOINT LeftWrist
					{
						OFFSET	0.826843	-10.854500	1.034220
						CHANNELS 3 Zrotation Xrotation Yrotation
						End Site
						{
							OFFSET	-1.679080	-8.456540	0.936217
						}
					}
				}
			}
		}
		JOINT RightCollar
		{
			OFFSET	-3.857650	15.070700	-0.011583
			CHANNELS 3 Zrotation Xrotation Yrotation
			JOINT RightShoulder
			{
				OFFSET	-3.979720	-1.940530	-0.165223
				CHANNELS 3 Zrotation Xrotation Yrotation
				JOINT RightElbow
				{
					OFFSET	-0.615845	-10.986600	-0.673886
					CHANNELS 3 Zrotation Xrotation Yrotation
					JOINT RightWrist
					{
						OFFSET	-0.826843	-10.854500	1.034220
						CHANNELS 3 Zrotation Xrotation Yrotation
						End Site
						{
							OFFSET	1.679080	-8.456540	0.936217
						}
					}
				}
			}
		}
		JOINT Neck
		{
			OFFSET	0.000000	15.101400	0.055730
			CHANNELS 3 Zrotation Xrotation Yrotation
			JOINT Head
			{
				OFFSET	0.000000	4.185120	1.488260
				CHANNELS 3 Zrotation Xrotation Yrotation
				End Site
				{
					OFFSET	0.000000	7.773420	-0.106016
				}
			}
		}
	}
}
MOTION
Frames:     21
Frame Time: 0.016667
-1.922055	38.844540	-6.567435	4.050536	-8.873604	-10.322310	-1.479302	12.348055	-2.099990	-0.139614	-6.296448	9.109383	-0.234043	2.212018	4.946613	-22.551291	-2.385635	-4.905954	0.655109	15.129199	-3.815718	13.178087	-1.975927	10.046673	-6.502009	4.873728	-3.665426	-2.714737	1.674479	4.433282	3.338959	-2.787871	1.594995	-3.202677	-11.841504	-7.827855	4.166902	11.255759	-11.583771	-5.434536	-0.460832	8.907798	-0.410969	-2.254930	2.079229	-2.634088	2.422062	6.655167	-4.977642	-2.916831	9.171814	-3.837643	2.743587	1.002088	3.851025	5.526861	-0.232614	
-1.922491	38.844673	-6.571728	4.050536	-8.873604	-10.322310	-1.478199	12.341250	-2.098531	-0.137627	-6.297274	9.109887	-0.236205	2.220069	4.944839	-22.549751	-2.399591	-4.909137	0.651541	15.143007	-3.812516	13.178087	-1.975927	10.046673	-6.499071	4.874834	-3.675359	-2.723190	1.681671	4.432341	3.336637	-2.769693	1.604730	-3.201084	-11.864886	-7.828884	4.159935	11.262050	-11.625534	-5.433806	-0.460476	8.912562	-0.415227	-2.257017	2.079367	-2.633996	2.420620	6.675199	-4.976528	-2.914750	9.159200	-3.844059	2.756248	1.010823	3.853679	5.512311	-0.230624	
-1.923851	38.845062	-6.584438	4.050536	-8.873604	-10.322310	-1.475119	12.322212	-2.094493	-0.131005	-6.301826	9.111947	-0.242913	2.244981	4.939387	-22.548183	-2.413719	-4.912355	0.647927	15.156987	-3.809280	13.178087	-1.975927	10.046673	-6.491010	4.877865	-3.702622	-2.749017	1.705809	4.424574	3.334868	-2.731643	1.637433	-3.295424	-11.840878	-7.881933	4.247306	11.218211	-11.769993	-5.430349	-0.458429	8.923665	-0.428981	-2.263230	2.077219	-2.633626	2.415086	6.746732	-5.013254	-2.895704	9.149573	-3.863581	2.799783	1.034292	3.845935	5.513769	-0.221091	
-1.924300	38.845184	-6.588556	4.050536	-8.873604	-10.322310	-1.474132	12.316137	-2.093201	-0.128802	-6.303480	9.112657	-0.245113	2.253142	4.937601	-22.546572	-2.428308	-4.915698	0.644194	15.171419	-3.805914	13.178087	-1.975927	10.046673	-6.488572	4.878781	-3.710879	-2.756657	1.712823	4.422570	3.334385	-2.720686	1.647009	-3.322894	-11.836513	-7.892418	4.274477	11.207844	-11.811575	-5.428730	-0.457403	8.926254	-0.433878	-2.265419	2.076333	-2.633450	2.413166	6.771215	-5.015468	-2.892799	9.155093	-3.870033	2.815399	1.041265	3.839839	5.505409	-0.221001	
-1.925630	38.845543	-6.600515	4.050536	-8.873604	-10.322310	-1.471356	12.299032	-2.089581	-0.122059	-6.309305	9.115018	-0.251629	2.277369	4.932301	-22.545088	-2.441743	-4.918760	0.640755	15.184714	-3.802830	13.178087	-1.975927	10.046673	-6.482978	4.880847	-3.729717	-2.775929	1.731876	4.414415	3.346523	-2.739796	1.674959	-3.368058	-11.802714	-7.926267	4.304748	11.198766	-11.888433	-5.421381	-0.452329	8.927151	-0.449650	-2.272496	2.073380	-2.632592	2.408233	6.834626	-5.019687	-2.885339	9.143613	-3.884633	2.851661	1.057149	3.838026	5.474442	-0.217692	
-1.926087	38.845631	-6.603081	4.050536	-8.873604	-10.322310	-1.471235	12.298291	-2.089409	-0.118740	-6.316126	9.117008	-0.253783	2.285386	4.930530	-22.544321	-2.448717	-4.920335	0.638979	15.191615	-3.801244	13.178087	-1.975927	10.046673	-6.482978	4.880847	-3.729717	-2.780077	1.738849	4.406189	3.350541	-2.746564	1.683732	-3.384080	-11.790881	-7.928293	4.319050	11.194610	-11.912306	-5.416990	-0.449124	8.921185	-0.455120	-2.274957	2.072439	-2.631801	2.400282	6.842671	-5.019026	-2.877763	9.143098	-3.884633	2.851661	1.057149	3.833486	5.472735	-0.208726	
-1.927475	38.845894	-6.610151	4.050536	-8.873604	-10.322310	-1.471235	12.298291	-2.089409	-0.108256	-6.338817	9.123537	-0.260264	2.309465	4.925264	-22.544321	-2.448717	-4.920335	0.638979	15.191615	-3.801244	13.178087	-1.975927	10.046673	-6.482978	4.880847	-3.729717	-2.792485	1.759722	4.381573	3.359090	-2.754436	1.709328	-3.383185	-11.801785	-7.928824	4.325843	11.185222	-11.877604	-5.402565	-0.438600	8.901611	-0.472836	-2.283048	2.071419	-2.629258	2.373857	6.861074	-5.016598	-2.852968	9.147389	-3.894434	2.895348	1.054657	3.818513	5.420374	-0.156652	
-1.927932	38.845978	-6.612481	4.050536	-8.873604	-10.322310	-1.471235	12.298291	-2.089409	-0.104799	-6.346294	9.125693	-0.262399	2.317401	4.923522	-22.544321	-2.448717	-4.920335	0.638979	15.191615	-3.801244	13.178087	-1.975927	10.046673	-6.486440	4.884511	-3.730077	-2.797402	1.765053	4.380023	3.363617	-2.751248	1.711463	-3.380108	-11.814352	-7.929021	4.330704	11.171307	-11.831761	-5.393839	-0.438404	8.895105	-0.479024	-2.285880	2.071145	-2.628394	2.365257	6.867472	-5.015804	-2.844923	9.148782	-3.895784	2.915346	1.053770	3.822788	5.396976	-0.153505	
-1.929277	38.846218	-6.619332	4.050536	-8.873604	-10.322310	-1.471235	12.298291	-2.089409	-0.094640	-6.368276	9.132044	-0.268672	2.340730	4.918401	-22.544321	-2.448717	-4.920335	0.638979	15.191615	-3.801244	13.178087	-1.975927	10.046673	-6.495419	4.893994	-3.730992	-2.812332	1.778363	4.382200	3.382892	-2.763040	1.711990	-3.376313	-11.832693	-7.875602	4.348872	11.147308	-11.799491	-5.373033	-0.439019	8.880676	-0.493619	-2.292308	2.064460	-2.625725	2.338985	6.887211	-5.018617	-2.818309	9.143939	-3.888273	2.906422	1.041029	3.823449	5.397820	-0.139554	
-1.929706	38.846298	-6.621516	4.050536	-8.873604	-10.322310	-1.471235	12.298291	-2.089409	-0.091398	-6.375288	9.134056	-0.270674	2.348172	4.916782	-22.544321	-2.448717	-4.920335	0.638979	15.191615	-3.801244	13.178087	-1.975927	10.046673	-6.505879	4.905041	-3.732057	-2.807566	1.771867	4.388634	3.388658	-2.767722	1.707466	-3.345749	-11.859725	-7.822985	4.328847	11.155782	-11.811872	-5.361907	-0.449504	8.881657	-0.494568	-2.292232	2.056994	-2.624826	2.330555	6.893937	-5.010179	-2.811619	9.108216	-3.879162	2.894355	1.027666	3.824042	5.400373	-0.124913	
-1.930942	38.846519	-6.627812	4.050536	-8.873604	-10.322310	-1.471235	12.298291	-2.089409	-0.082054	-6.395490	9.139905	-0.276441	2.369616	4.912070	-22.544321	-2.448717	-4.920335	0.638979	15.191615	-3.801244	13.178087	-1.975927	10.046673	-6.517028	4.916828	-3.733213	-2.814795	1.771322	4.408541	3.408087	-2.779288	1.711838	-3.315856	-11.888796	-7.818702	4.302584	11.150229	-11.741505	-5.350046	-0.460691	8.882729	-0.497457	-2.291977	2.034349	-2.622142	2.306960	6.914544	-4.996903	-2.791894	9.070437	-3.869331	2.881581	1.014325	3.810394	5.397559	-0.082079	
-1.931333	38.846596	-6.629801	4.050536	-8.873604	-10.322310	-1.471235	12.298291	-2.089409	-0.079104	-6.401869	9.141742	-0.278260	2.376386	4.910593	-22.544321	-2.448717	-4.920335	0.638979	15.191615	-3.801244	13.178087	-1.975927	10.046673	-6.522794	4.922920	-3.733808	-2.815448	1.769323	4.415866	3.415606	-2.782952	1.719769	-3.308564	-11.952983	-7.813381	4.291268	11.196811	-11.721033	-5.343912	-0.466472	8.883281	-0.498434	-2.291896	2.026748	-2.621255	2.299512	6.921490	-4.989581	-2.786521	9.052889	-3.864233	2.874988	1.007524	3.811993	5.390054	-0.060845	
-1.932449	38.846794	-6.635476	4.050536	-8.873604	-10.322310	-1.471235	12.298291	-2.089409	-0.070680	-6.420077	9.147005	-0.283456	2.395713	4.906362	-22.544321	-2.448717	-4.920335	0.638979	15.191615	-3.801244	13.178087	-1.975927	10.046673	-6.544396	4.940354	-3.722644	-2.813264	1.765305	4.425762	3.439156	-2.793807	1.749801	-3.315332	-12.023388	-7.845106	4.285849	11.238704	-11.661864	-5.321391	-0.481538	8.872529	-0.501390	-2.291644	2.003518	-2.618584	2.278596	6.942908	-4.954923	-2.777253	9.033839	-3.844010	2.857246	0.975294	3.828467	5.363606	-0.009148	
-1.932812	38.846851	-6.637321	4.050536	-8.873604	-10.322310	-1.471235	12.298291	-2.089409	-0.067937	-6.425995	9.148732	-0.285148	2.401998	4.904972	-22.544321	-2.448717	-4.920335	0.638979	15.191615	-3.801244	13.178087	-1.975927	10.046673	-6.552994	4.946093	-3.715254	-2.811481	1.764543	4.425943	3.447633	-2.797551	1.761876	-3.311648	-12.101357	-7.826469	4.278413	11.297989	-11.660769	-5.312531	-0.486070	8.865428	-0.502333	-2.291558	1.996142	-2.617749	2.272257	6.949727	-4.953075	-2.771849	9.034049	-3.835662	2.851766	0.961370	3.839298	5.354848	0.000411	
-1.933846	38.847034	-6.642579	4.050536	-8.873604	-10.322310	-1.471235	12.298291	-2.089409	-0.060127	-6.442863	9.153626	-0.289961	2.419904	4.901039	-22.544321	-2.448717	-4.920335	0.638979	15.191615	-3.801244	13.178087	-1.975927	10.046673	-6.579960	4.962866	-3.689108	-2.803961	1.762420	4.421736	3.473787	-2.807030	1.815372	-3.303726	-12.167049	-7.871880	4.257195	11.317955	-11.564601	-5.284855	-0.498808	8.840328	-0.504986	-2.291326	1.975362	-2.615394	2.255104	6.969010	-4.951544	-2.756192	9.036763	-3.809235	2.836154	0.916294	3.876393	5.324094	0.029727	
-1.934166	38.847088	-6.644213	4.050536	-8.873604	-10.322310	-1.471235	12.298291	-2.089409	-0.057702	-6.448107	9.155144	-0.291454	2.425472	4.899821	-22.544321	-2.448717	-4.920335	0.638979	15.191615	-3.801244	13.178087	-1.975927	10.046673	-6.598635	4.973304	-3.668141	-2.785079	1.754647	4.402783	3.477351	-2.805693	1.842914	-3.308540	-12.170248	-7.900235	4.257846	11.302381	-11.511407	-5.265795	-0.506214	8.820210	-0.505799	-2.291257	1.969024	-2.614807	2.254008	6.975182	-4.951473	-2.755497	9.036951	-3.791598	2.826105	0.876951	3.889004	5.316290	0.052082	
-1.934509	38.847153	-6.645948	4.050536	-8.873604	-10.322310	-1.471235	12.298291	-2.089409	-0.055121	-6.453673	9.156758	-0.293047	2.431382	4.898526	-22.544321	-2.448717	-4.920335	0.638979	15.191615	-3.801244	13.178087	-1.975927	10.046673	-6.616735	4.968184	-3.610160	-2.765687	1.763625	4.346713	3.484783	-2.800222	1.921889	-3.267770	-12.219206	-7.972084	4.200788	11.298039	-11.372367	-5.233979	-0.484297	8.744807	-0.523331	-2.299414	1.971103	-2.613244	2.252930	6.992857	-4.951473	-2.755497	9.036951	-3.772834	2.834688	0.808462	3.927527	5.282610	0.074119	
-1.934509	38.847153	-6.645948	4.050536	-8.873604	-10.322310	-1.471235	12.298291	-2.089409	-0.055121	-6.453673	9.156758	-0.293047	2.431382	4.898526	-22.544321	-2.448717	-4.920335	0.638979	15.191615	-3.801244	13.178087	-1.975927	10.046673	-6.617872	4.967849	-3.606719	-2.764474	1.764192	4.343392	3.485001	-2.799999	1.924889	-3.247972	-12.234518	-7.972368	4.183269	11.295405	-11.324578	-5.228329	-0.480232	8.735331	-0.528201	-2.301965	1.976538	-2.613185	2.252768	6.993615	-4.951473	-2.755497	9.036951	-3.772349	2.834671	0.799238	3.941202	5.270958	0.083389	
-1.934509	38.847153	-6.645948	4.050536	-8.873604	-10.322310	-1.471235	12.298291	-2.089409	-0.055121	-6.453673	9.156758	-0.293047	2.431382	4.898526	-22.544321	-2.448717	-4.920335	0.638979	15.191615	-3.801244	13.178087	-1.975927	10.046673	-6.617872	4.967849	-3.606719	-2.770913	1.771082	4.341081	3.494351	-2.804795	1.962591	-3.203209	-12.275987	-8.000318	4.126298	11.322124	-11.295856	-5.216650	-0.471644	8.719533	-0.540409	-2.308831	1.992384	-2.613185	2.252768	6.993615	-4.950881	-2.771455	9.017409	-3.775578	2.843948	0.792205	3.980044	5.227598	0.100355	
-1.934509	38.847153	-6.645948	4.050536	-8.873604	-10.322310	-1.471235	12.298291	-2.089409	-0.055121	-6.453673	9.156758	-0.293047	2.431382	4.898526	-22.544321	-2.448717	-4.920335	0.638979	15.191615	-3.801244	13.178087	-1.975927	10.046673	-6.617872	4.967849	-3.606719	-2.777676	1.778553	4.337902	3.502451	-2.811263	1.984956	-3.193941	-12.287314	-8.017165	4.110288	11.330232	-11.292072	-5.216186	-0.471189	8.718904	-0.540914	-2.309217	1.993015	-2.613185	2.252768	6.993615	-4.948602	-2.787021	9.003544	-3.777109	2.850566	0.791854	3.993165	5.209860	0.104189	
-1.934509	38.847153	-6.645948	4.050536	-8.873604	-10.322310	-1.471235	12.298291	-2.089409	-0.055121	-6.453673	9.156758	-0.293047	2.431382	4.898526	-22.544321	-2.448717	-4.920335	0.638979	15.191615	-3.801244	13.178087	-1.975927	10.046673	-6.643991	4.948874	-3.573346	-2.761442	1.816037	4.290383	3.516770	-2.822525	2.058154	-3.196462	-12.298605	-8.070830	4.094607	11.338964	-11.291567	-5.191637	-0.447886	8.689782	-0.540914	-2.309217	1.993015	-2.613185	2.252768	6.993615	-4.951759	-2.798694	9.002491	-3.755708	2.894500	0.761007	4.031457	5.156376	0.115580	
